<svg xmlns="http://www.w3.org/2000/svg" viewBox="0 0 198.833 149.493"><title>logo</title><path d="M196.273,120.373l-14.654-28.98-13.042-5.342-43.394-.626-28.86,3.849L82,50.367,70.128,21.024,62.567,2.186,53.435,33.046l-21.668,47.9L1.594,146.815l49.991-4.477,19.43,4.358,71.836-1.91,35.366,2.507,18.682,0.239ZM180.5,92.657l14,27.594L163.26,104.557l5.258-16.589Zm13.671,29.149-7.778,11.809L164.5,106.885Zm-27.162-34.19-5.1,16.158-6.075-15.092Zm-6.664,16.36L127.738,93.405,116.2,92.479l38.037-3.642Zm-33.085-7.211,4.6,25.245-19.684,4.515Zm-16.11,28.4-1.381-31.59,16.705,1.382Zm17.4-29.879,31.114,10.072-26.378,16.033Zm31.477,11.627L148.17,131.219,134.1,122.681ZM126.672,86.924l27.405,0.371-45.2,3.981-11.85-.108L96.891,90.8ZM67.162,80.7l8.251-11.43L85.9,90.161Zm19.79,11.7L91.4,112.261,67.989,82.788ZM73.675,60.326L74.638,67.4,58.33,79.524Zm-0.3-13.585,6.078,3.787L74.7,56.474ZM72.119,71.2l-6.547,9.083-8.4,2.006ZM65.194,81.987l9.091,27.652L55.058,84.332Zm2.656,3.085,24.442,30.77,13.133,8.779L77.047,113.187ZM93.931,115.1l6.887-9.466,7.032,18.766Zm3.684-22.4,10.595,0.077,0,0.122-6.95,9.522Zm4.287,11.46,6.406-8.824,1.285,29.388Zm-1.724-.241L93.2,113.481,88.558,92.619l7.392,0.061ZM95.41,91.168l-1.173-.016,1.065-.17Zm-0.643-1.646-6.777.862L82.842,57.636Zm-8.9-2.891-9.7-19.33-1.129-8.768,5.346-6.677ZM79.72,48.868l-6.611-4.119-2.358-18.2Zm-8.271-5.149L55.506,33.755l13.12-10.96ZM62.814,6.984L68.493,21,55.44,31.762ZM54.71,35.05L71.682,45.679,73.376,58.2,54.444,81.948ZM54.085,85.613l20.678,27.158-37.018-.2Zm20.2,28.689L58.251,132.388,37.969,114.1ZM53.159,36.837L52.933,82.971,33.9,79.943Zm-0.169,47.68L36.7,111.393l-2.99-29.936ZM32.367,83.147l2.991,30.479L5.2,142.544ZM4.99,144.872l28.424-27.266L19.751,143.582Zm16.575-1.442,14.761-28.121L50.382,140.9Zm30.016-3.5L39.087,117.163l18.157,16.373ZM52.668,141l5.713-6.439,10.973,9.885Zm18.066,2.649L59.39,133.415l15.667-17.682Zm6.025-28.938,31.94,12.857L72.246,143.883Zm-3.537,30.419,37.018-16.594,29.915,14.81Zm39.336-17.138,19.708-4.5,9.189,18.78Zm22.029-3.224,12.911,7.835-4.531,9.288Zm9.38,18.587,4.848-9.97L168.03,145.04Zm5.518-11.343L161.512,107.4l8.6,37.109ZM171.879,145.3l-8.767-37.7,22.381,27.367-7.153,10.8Zm8.289,0.489,6.325-9.583,7.994,9.765Zm7.21-10.934,7.45-11.242,0.476,20.962Z" fill="#000"/></svg>