<?xml version="1.0" standalone="no"?>
<!DOCTYPE svg PUBLIC "-//W3C//DTD SVG 20010904//EN"
 "http://www.w3.org/TR/2001/REC-SVG-20010904/DTD/svg10.dtd">
<svg version="1.0" xmlns="http://www.w3.org/2000/svg"
 width="16.000000pt" height="16.000000pt" viewBox="0 0 16.000000 16.000000"
 preserveAspectRatio="xMidYMid meet">
<metadata>
Created by potrace 1.11, written by Peter Selinger 2001-2013
</metadata>
<g transform="translate(0.000000,16.000000) scale(0.008000,-0.008000)"
fill="#000000" stroke="none">
<path d="M600 1658 c-60 -199 -70 -226 -103 -299 -38 -81 -62 -135 -100 -219
-13 -30 -36 -81 -51 -112 -14 -32 -37 -82 -50 -110 -13 -29 -79 -172 -145
-317 -67 -145 -121 -267 -121 -272 0 -9 63 -6 170 6 19 2 73 7 120 11 47 3 94
8 104 10 51 10 128 4 202 -15 74 -19 98 -20 315 -14 341 9 568 9 699 -1 63 -5
165 -10 225 -10 l110 -1 -3 138 -2 137 -73 142 -72 141 -66 28 c-66 28 -68 28
-315 31 -137 1 -254 -1 -259 -4 -11 -7 -132 -22 -183 -23 l-33 0 -78 210 c-69
184 -248 634 -256 643 -2 2 -17 -43 -35 -100z m83 -63 c5 -16 -6 -30 -55 -69
-70 -56 -69 -63 -20 97 l27 88 21 -48 c12 -26 24 -57 27 -68z m21 -120 c4 -27
9 -65 12 -84 3 -18 2 -32 -3 -30 -26 11 -143 84 -143 90 0 4 26 28 57 53 63
53 67 51 77 -29z m90 -164 c-2 -2 -14 3 -28 12 -24 16 -27 27 -41 140 -5 35 1
26 33 -53 22 -52 38 -97 36 -99z m-210 110 c3 -5 36 -27 74 -50 38 -23 69 -47
69 -54 0 -6 3 -35 6 -62 l7 -51 -81 -99 c-44 -55 -86 -106 -93 -113 -11 -11
-13 28 -11 205 2 120 3 221 4 226 1 10 19 9 25 -2z m-47 -236 l-1 -225 -41 6
c-98 13 -146 26 -142 37 3 7 39 86 79 177 41 91 81 180 89 198 7 17 15 32 16
32 1 0 1 -101 0 -225z m253 84 c-5 -8 -16 -21 -24 -29 -14 -11 -16 -8 -16 18
0 17 -3 38 -6 46 -6 15 -3 14 24 -1 23 -13 28 -21 22 -34z m30 -70 c5 -30 12
-67 15 -84 12 -66 24 -159 21 -162 -7 -7 -86 171 -92 207 -5 31 -2 45 16 70
12 17 24 29 26 27 2 -2 8 -28 14 -58z m-70 -58 c0 -24 -12 -38 -77 -86 -42
-32 -70 -49 -62 -39 42 58 124 154 131 154 4 0 8 -13 8 -29z m147 -94 c62
-168 60 -157 21 -157 -30 0 -34 3 -36 28 -1 15 -10 75 -20 135 -10 59 -16 107
-13 107 4 0 25 -51 48 -113z m-43 -143 c3 -8 -34 6 -84 32 -60 31 -87 50 -82
58 5 6 23 31 42 55 l34 44 42 -88 c24 -48 45 -93 48 -101z m-164 121 c-17 -25
-36 -45 -43 -45 -7 0 -23 -3 -37 -7 -17 -4 -3 10 40 44 36 28 66 52 68 52 2 1
-11 -19 -28 -44z m-218 -71 c29 -4 55 -8 57 -10 5 -5 -143 -254 -151 -254 -5
0 -8 15 -9 33 0 17 -2 41 -4 52 -1 11 -6 60 -10 108 l-8 89 36 -6 c20 -3 61
-9 89 -12z m228 -113 c23 -68 40 -125 38 -126 -5 -4 -168 213 -168 223 0 7 79
31 87 27 1 -1 21 -57 43 -124z m91 65 c67 -35 85 -49 91 -72 18 -71 36 -154
33 -154 -2 0 -45 53 -96 118 -51 64 -99 125 -107 135 -22 25 -13 22 79 -27z
m-456 -7 c2 -19 9 -81 15 -139 l11 -105 -143 -137 c-78 -76 -143 -136 -145
-134 -1 1 47 110 108 242 61 131 117 256 126 277 18 44 21 43 28 -4z m276 -51
c36 -46 82 -107 103 -136 l38 -52 -164 1 c-89 0 -171 3 -180 5 -13 4 -3 28 60
134 42 71 77 130 78 130 1 0 30 -37 65 -82z m209 -81 c68 -86 122 -145 153
-166 27 -18 46 -35 43 -38 -3 -3 -11 -2 -18 4 -7 5 -57 26 -110 47 -53 20
-101 43 -106 49 -5 7 -24 57 -42 112 -17 55 -36 111 -42 124 -15 39 7 16 122
-132z m593 143 c-4 -4 -50 -11 -101 -15 -51 -3 -103 -8 -114 -10 -40 -8 -157
-9 -164 -2 -4 4 7 7 24 7 18 0 33 1 35 2 1 0 38 7 82 13 89 14 252 17 238 5z
m257 -10 c0 -15 -41 -142 -45 -138 -3 3 -55 130 -55 134 0 3 45 10 78 13 12 0
22 -4 22 -9z m144 -42 c1 -2 32 -63 69 -135 58 -114 64 -131 45 -122 -13 5
-82 40 -154 77 l-132 67 25 81 26 82 60 -24 c33 -13 61 -25 61 -26z m-261 30
c3 -7 17 -41 30 -75 l25 -61 -47 14 c-25 7 -93 30 -151 49 -58 20 -125 39
-150 42 -58 7 -64 13 -14 14 21 1 48 3 59 4 11 1 58 6 105 10 47 4 87 9 89 11
10 9 49 3 54 -8z m-583 -31 c0 -1 8 -25 19 -54 l19 -51 -34 -47 -33 -47 -10
39 c-10 42 -22 98 -23 110 0 5 -4 18 -9 31 -8 20 -6 22 31 22 22 0 40 -1 40
-3z m89 -39 c-18 -24 -34 -45 -36 -47 -2 -4 -14 25 -27 67 -7 21 -5 22 44 22
l52 0 -33 -42z m183 22 l28 0 -72 -145 c-40 -79 -74 -143 -75 -141 -2 2 -6 70
-10 151 l-6 148 54 -6 c30 -4 66 -7 81 -7z m-147 -150 l5 -135 -36 97 -36 97
29 40 c15 21 29 38 30 37 1 -1 4 -62 8 -136z m340 99 c72 -22 138 -44 148 -47
13 -5 -13 -26 -109 -85 -69 -43 -128 -77 -130 -74 -8 7 -51 247 -45 247 3 0
65 -18 136 -41z m-154 9 c0 -1 4 -21 9 -43 13 -55 24 -124 24 -159 1 -28 -1
-29 -82 -48 -46 -11 -86 -18 -88 -15 -3 3 25 66 63 140 56 114 77 148 74 125z
m-205 -232 c5 -13 -10 -7 -57 24 -35 24 -65 44 -67 45 -2 2 12 24 30 49 l32
47 28 -73 c16 -40 31 -81 34 -92z m514 120 c-5 -13 -29 -65 -55 -115 l-46 -92
-47 27 c-74 43 -82 48 -82 55 0 6 229 149 237 149 1 0 -2 -11 -7 -24z m350
-121 c0 -14 -64 -106 -71 -102 -8 3 -199 235 -199 242 0 3 61 -25 135 -62 74
-37 135 -72 135 -78z m-296 53 c11 -46 21 -90 22 -97 2 -8 10 -45 19 -83 9
-37 15 -71 13 -77 -4 -13 -189 101 -186 115 5 21 103 224 108 224 3 0 14 -37
24 -82z m111 -49 l106 -131 -35 -54 c-32 -47 -40 -54 -66 -52 -31 2 -40 19
-56 103 -2 11 -17 75 -32 143 -16 67 -27 122 -26 122 2 0 51 -59 109 -131z
m-1015 72 c0 -4 -64 -79 -119 -140 -35 -39 -25 -43 -121 46 -25 23 -57 52 -72
65 -16 13 -28 26 -28 29 0 2 76 5 170 4 93 0 170 -2 170 -4z m340 -130 c0 -3
-28 -18 -63 -33 -34 -14 -112 -49 -174 -77 l-112 -50 4 27 c3 15 7 43 10 62
14 99 27 176 30 187 3 8 54 -9 154 -49 83 -34 151 -64 151 -67z m-636 -11 c35
-63 63 -116 62 -117 -3 -3 -91 -13 -183 -19 -89 -6 -106 -2 -84 21 5 6 35 61
67 123 32 62 62 111 66 110 5 -2 37 -55 72 -118z m291 -7 c-9 -65 -20 -121
-24 -125 -6 -7 -101 73 -101 86 0 10 134 164 139 160 2 -2 -4 -56 -14 -121z
m-459 -5 c-74 -139 -70 -135 -143 -141 -35 -3 -63 -3 -63 0 0 2 46 48 102 101
56 53 113 109 127 123 14 14 27 24 29 23 2 -1 -21 -49 -52 -106z m213 45 c25
-22 57 -50 69 -60 l24 -19 -29 -31 -30 -32 -20 37 c-11 20 -38 69 -59 107 -40
74 -37 74 45 -2z m881 -64 c23 -44 40 -84 38 -87 -2 -4 -64 23 -138 59 l-135
66 85 21 c47 11 91 21 97 21 7 1 31 -35 53 -80z m588 -26 l3 -97 -35 39 c-19
22 -35 47 -36 56 0 13 54 99 63 99 1 0 3 -44 5 -97z m-536 55 c29 -17 54 -33
56 -34 2 -1 -6 -21 -18 -44 -12 -23 -23 -40 -25 -38 -8 9 -75 148 -70 148 2 0
28 -14 57 -32z m-171 -65 c76 -38 139 -70 139 -73 0 -3 -19 -6 -42 -6 -24 0
-167 -3 -318 -7 l-275 -7 65 31 c36 17 90 41 120 55 30 14 78 36 105 49 28 13
54 24 58 24 5 1 71 -29 148 -66z m334 -34 c47 -28 85 -53 85 -55 0 -4 -190 6
-208 11 -9 3 -6 16 10 50 12 25 24 45 25 45 2 0 42 -23 88 -51z m-895 -47 c6
-6 -62 6 -114 19 l-38 10 27 29 28 30 46 -42 c25 -23 48 -43 51 -46z m1223 23
l38 -45 -71 0 -71 0 31 45 c17 25 32 45 33 45 2 0 20 -20 40 -45z"/>
</g>
</svg>
