<?xml version="1.0" encoding="UTF-8" standalone="no"?>
<!DOCTYPE svg  PUBLIC '-//W3C//DTD SVG 1.1//EN'  'http://www.w3.org/Graphics/SVG/1.1/DTD/svg11.dtd'>
<svg stroke-linejoin="round" xmlns="http://www.w3.org/2000/svg" fill-rule="evenodd" xml:space="preserve" height="100%" width="100%" version="1.1" stroke-miterlimit="1.41" clip-rule="evenodd" xmlns:xlink="http://www.w3.org/1999/xlink" viewBox="0 0 1280 396"><rect height="395" width="1.28e3" y="0" x="0" fill="none"/><path d="m1.26e3 377h-923v-360h923v360zm-914-352v344h906v-344h-906z" fill="#fff"/><g fill="#fff" fill-rule="nonzero"><path d="m514 233c0 7.47-0.814 15.3-2.44 23.6-1.63 8.24-4.65 15.9-9.06 23-4.41 7.09-10.6 12.9-18.7 17.5-8.05 4.6-18.4 6.9-31 6.9-16.5 0-29.7-4.12-39.5-12.4-9.87-8.24-16.6-19.1-20.3-32.5l33.3-9.49c1.72 6.71 4.89 12 9.49 16 4.6 3.93 10.1 5.89 16.4 5.89 5.18 0 9.44-0.959 12.8-2.88 3.35-1.92 5.94-4.65 7.76-8.19s3.11-7.76 3.88-12.6c0.767-4.89 1.15-10.2 1.15-16v-137h36.2v138z"/><path d="m551 95.2h135v31.6h-98.6v51.7h93.4v30.5h-93.4v57.5h104v32.2h-140v-204z"/><path d="m825 138c-3.83-4.98-9.25-9.15-16.2-12.5-7-3.35-14-5.03-21.1-5.03-4.22 0-8.43 0.527-12.6 1.58-4.22 1.05-8.05 2.68-11.5 4.89-3.45 2.2-6.28 5.08-8.48 8.62s-3.3 7.81-3.3 12.8c0 4.6 0.958 8.53 2.87 11.8 1.92 3.26 4.55 6.04 7.9 8.34s7.43 4.31 12.2 6.04c4.79 1.72 10.1 3.45 15.8 5.17 6.52 2.11 13.3 4.5 20.3 7.19 6.99 2.68 13.4 6.23 19.3 10.6 5.84 4.41 10.6 9.96 14.4 16.7 3.74 6.71 5.6 15 5.6 25 0 10.9-2.01 20.5-6.04 28.6-4.02 8.14-9.39 14.9-16.1 20.3-6.71 5.37-14.6 9.39-23.6 12.1-9.01 2.68-18.5 4.02-28.5 4.02-13.2 0-26.2-2.44-38.8-7.33s-23-12.1-31-21.7l25.9-24.1c4.98 6.9 11.6 12.4 20 16.4 8.34 4.02 16.5 6.04 24.6 6.04 4.22 0 8.53-0.527 12.9-1.58 4.41-1.05 8.38-2.83 11.9-5.32 3.54-2.49 6.42-5.6 8.62-9.34s3.31-8.38 3.31-13.9c0-5.36-1.25-9.82-3.74-13.4-2.49-3.54-5.84-6.61-10.1-9.2-4.22-2.59-9.2-4.84-14.9-6.76-5.75-1.92-11.8-3.93-18.1-6.04-6.13-1.92-12.3-4.22-18.4-6.9-6.13-2.68-11.6-6.23-16.5-10.6-4.89-4.41-8.86-9.82-11.9-16.2-3.07-6.42-4.6-14.4-4.6-24 0-10.3 2.16-19.3 6.47-26.7 4.31-7.47 9.96-13.7 17-18.5 7-4.89 14.9-8.53 23.9-10.9 8.91-2.4 18-3.59 27.2-3.59 10.3 0 20.8 1.82 31.5 5.46 10.6 3.64 19.9 9.1 27.7 16.4l-23.6 25.9z"/><path d="m1.04e3 224c0 12.3-2.11 23.3-6.32 33.2-4.22 9.87-9.96 18.3-17.2 25.2-7.28 6.9-15.9 12.2-25.9 16-9.96 3.74-20.8 5.6-32.5 5.6s-22.5-1.87-32.5-5.6c-9.96-3.74-18.6-9.06-26-16-7.38-6.9-13.1-15.3-17.2-25.2-4.12-9.87-6.18-20.9-6.18-33.2v-129h36.2v127c0 5.94 0.766 11.8 2.3 17.7 1.53 5.84 4.07 11.1 7.62 15.7 3.54 4.6 8.24 8.34 14.1 11.2 5.84 2.87 13.1 4.31 21.7 4.31 8.62 0 15.9-1.44 21.7-4.31 5.84-2.88 10.5-6.61 14.1-11.2 3.54-4.6 6.08-9.82 7.62-15.7 1.53-5.84 2.3-11.7 2.3-17.7v-127h36.2v129z"/><path d="m1.18e3 138c-3.83-4.98-9.25-9.15-16.2-12.5-7-3.35-14-5.03-21.1-5.03-4.22 0-8.43 0.527-12.6 1.58-4.22 1.05-8.05 2.68-11.5 4.89-3.45 2.2-6.28 5.08-8.48 8.62s-3.3 7.81-3.3 12.8c0 4.6 0.958 8.53 2.87 11.8 1.92 3.26 4.55 6.04 7.9 8.34s7.43 4.31 12.2 6.04c4.79 1.72 10.1 3.45 15.8 5.17 6.52 2.11 13.3 4.5 20.3 7.19 6.99 2.68 13.4 6.23 19.3 10.6 5.84 4.41 10.6 9.96 14.4 16.7 3.74 6.71 5.6 15 5.6 25 0 10.9-2.01 20.5-6.04 28.6-4.02 8.14-9.39 14.9-16.1 20.3-6.71 5.37-14.6 9.39-23.6 12.1-9.01 2.68-18.5 4.02-28.5 4.02-13.2 0-26.2-2.44-38.8-7.33s-23-12.1-31-21.7l25.9-24.1c4.98 6.9 11.6 12.4 20 16.4 8.34 4.02 16.5 6.04 24.6 6.04 4.22 0 8.53-0.527 12.9-1.58 4.41-1.05 8.38-2.83 11.9-5.32 3.54-2.49 6.42-5.6 8.62-9.34s3.31-8.38 3.31-13.9c0-5.36-1.25-9.82-3.74-13.4-2.49-3.54-5.84-6.61-10.1-9.2-4.22-2.59-9.2-4.84-14.9-6.76-5.75-1.92-11.8-3.93-18.1-6.04-6.13-1.92-12.3-4.22-18.4-6.9-6.13-2.68-11.6-6.23-16.5-10.6-4.89-4.41-8.86-9.82-11.9-16.2-3.07-6.42-4.6-14.4-4.6-24 0-10.3 2.16-19.3 6.47-26.7 4.31-7.47 9.96-13.7 17-18.5 7-4.89 14.9-8.53 23.9-10.9 8.91-2.4 18-3.59 27.2-3.59 10.3 0 20.8 1.82 31.5 5.46 10.6 3.64 19.9 9.1 27.7 16.4l-23.6 25.9z"/></g><g fill="#fff" fill-rule="nonzero"><path d="m92.6 29.7h-14.5v-7.35h37.4v7.35h-14.5v40h-8.42v-40z"/><path d="m115 45.9c0-3.79 0.635-7.21 1.9-10.3 1.27-3.05 3.03-5.65 5.28-7.79s4.92-3.79 8.02-4.95 6.47-1.74 10.1-1.74c3.7 0 7.11 0.58 10.2 1.74 3.12 1.16 5.82 2.81 8.09 4.95s4.04 4.74 5.31 7.79 1.9 6.47 1.9 10.3c0 3.7-0.635 7.08-1.9 10.1-1.27 3.05-3.04 5.68-5.31 7.89s-4.97 3.92-8.09 5.15-6.53 1.84-10.2 1.84c-3.66 0-7.03-0.612-10.1-1.84-3.1-1.22-5.77-2.94-8.02-5.15s-4.01-4.84-5.28-7.89-1.9-6.43-1.9-10.1zm9.16 0c0 2.54 0.39 4.87 1.17 6.98 0.78 2.12 1.89 3.96 3.34 5.52s3.16 2.77 5.15 3.64c1.98 0.869 4.18 1.3 6.58 1.3 2.41 0 4.61-0.434 6.62-1.3 2-0.869 3.73-2.08 5.18-3.64s2.56-3.4 3.34-5.52 1.17-4.44 1.17-6.98c0-2.45-0.39-4.72-1.17-6.82s-1.88-3.92-3.31-5.48-3.14-2.78-5.15-3.68c-2.01-0.892-4.23-1.34-6.68-1.34s-4.67 0.445-6.65 1.34c-1.98 0.891-3.69 2.12-5.11 3.68-1.43 1.56-2.53 3.39-3.31 5.48-0.78 2.1-1.17 4.37-1.17 6.82z"/><path d="m190 22.4h8.42v39.8h20.1v7.49h-28.5v-47.3z"/><rect height="47.3" width="8.42" y="22.4" x="223"/><path d="m234 22.4h9.42l13 36.4h0.267l13.2-36.4h9.09l-19 47.3h-7.29l-18.7-47.3z"/><path d="m282 22.4h31.4v7.35h-22.9v12h21.7v7.09h-21.7v13.4h24.1v7.49h-32.6v-47.3z"/></g><g fill="#fff" fill-rule="nonzero"><path d="m85.2 82.3h15.4v72.9h36.8v13.7h-52.2v-86.6z"/><rect height="86.6" width="15.4" y="82.3" x="145"/><path d="m177 82.3h15.4v37.4h0.367l36.2-37.4h20.8l-40.5 40 43.2 46.6h-21.7l-38-43.4h-0.367v43.4h-15.4v-86.6z"/><path d="m259 82.3h57.4v13.5h-42v22h39.8v13h-39.8v24.5h44.2v13.7h-59.6v-86.6z"/></g><g fill="#fff" fill-rule="nonzero"><path d="m15.4 185h16.9l16.8 63.6h0.245l19.1-63.6h15.9l18.7 63.6h0.245l17.1-63.6h16.4l-25.3 86.6h-14.9l-20.3-65h-0.245l-20.3 65h-14.9l-25.3-86.6z"/><rect height="86.6" width="15.4" y="185" x="143"/><path d="m193 198h-26.5v-13.5h68.5v13.5h-26.5v73.2h-15.4v-73.2z"/><path d="m242 185h15.4v35h40.5v-35h15.4v86.6h-15.4v-38.4h-40.5v38.4h-15.4v-86.6z"/></g><g fill="#fff" fill-rule="nonzero"><path d="m89.2 285h55.9v13.5h-40.5v23.7h38.2v13h-38.2v36.5h-15.4v-86.6z"/><path d="m151 328c0-6.93 1.16-13.2 3.49-18.8 2.32-5.59 5.54-10.3 9.66-14.3 4.12-3.91 9.01-6.93 14.7-9.05 5.67-2.12 11.8-3.18 18.5-3.18 6.77 0 13 1.06 18.7 3.18 5.71 2.12 10.6 5.14 14.8 9.05 4.16 3.92 7.4 8.67 9.72 14.3 2.32 5.59 3.49 11.8 3.49 18.8 0 6.77-1.16 12.9-3.49 18.5-2.32 5.59-5.57 10.4-9.72 14.4-4.16 4.04-9.09 7.18-14.8 9.42s-11.9 3.36-18.7 3.36c-6.69 0-12.9-1.12-18.5-3.36-5.67-2.24-10.6-5.38-14.7-9.42-4.12-4.04-7.34-8.85-9.66-14.4-2.32-5.59-3.49-11.8-3.49-18.5zm16.8 0c0 4.65 0.713 8.91 2.14 12.8 1.43 3.87 3.47 7.24 6.12 10.1 2.65 2.85 5.79 5.08 9.42 6.67s7.65 2.38 12 2.38c4.4 0 8.44-0.795 12.1-2.38 3.67-1.59 6.83-3.81 9.48-6.67s4.69-6.22 6.12-10.1c1.43-3.87 2.14-8.14 2.14-12.8 0-4.49-0.714-8.64-2.14-12.5-1.43-3.83-3.45-7.18-6.06-10-2.61-2.85-5.75-5.1-9.42-6.73s-7.75-2.45-12.2-2.45c-4.49 0-8.54 0.816-12.2 2.45-3.63 1.63-6.75 3.87-9.36 6.73-2.61 2.85-4.63 6.2-6.06 10-1.43 3.83-2.14 7.99-2.14 12.5z"/><path d="m256 285h30.1c4.08 0 8.03 0.429 11.9 1.28 3.83 0.856 7.24 2.26 10.2 4.22 2.98 1.96 5.36 4.53 7.16 7.71 1.79 3.18 2.69 7.05 2.69 11.6 0 6.28-1.77 11.4-5.32 15.4-3.55 3.96-8.38 6.63-14.5 8.01l23.1 38.4h-18.6l-20.1-36.7h-11.3v36.7h-15.4v-86.6zm28 37.3c2.2 0 4.4-0.163 6.61-0.489 2.2-0.326 4.18-0.938 5.93-1.84 1.75-0.897 3.2-2.18 4.34-3.85s1.71-3.81 1.71-6.42c0-2.36-0.53-4.3-1.59-5.81s-2.41-2.71-4.04-3.61c-1.63-0.897-3.49-1.51-5.57-1.84-2.08-0.326-4.1-0.49-6.06-0.49h-13.9v24.3h12.6z"/></g></svg>