<?xml version="1.0" encoding="utf-8"?>
<!-- Generator: Adobe Illustrator 19.2.1, SVG Export Plug-In . SVG Version: 6.00 Build 0)  -->
<svg version="1.1" id="Layer_1" xmlns="http://www.w3.org/2000/svg" xmlns:xlink="http://www.w3.org/1999/xlink" x="0px" y="0px"
	 viewBox="0 0 891.4 1029.8" style="enable-background:new 0 0 891.4 1029.8;" xml:space="preserve">
<style type="text/css">
	.st0{fill:#FFFFFF;}
</style>
<path class="st0" d="M658.9,889c116.3-71,193.9-199.1,193.9-345.4c0-223.3-181.1-404.4-404.4-404.4C225.1,139.2,44,320.3,44,543.6
	c0,144.1,75.3,270.5,188.8,342.2L124.8,993c-4.1,4-4.1,10.7-0.1,14.8c4,4.1,10.7,4.1,14.8,0.1l111.9-111
	c58.3,32.6,125.5,51.2,197.1,51.2c69.3,0,134.6-17.4,191.6-48.2l108.9,108c4.1,4.1,10.8,4,14.8-0.1c4.1-4.1,4-10.8-0.1-14.8
	L658.9,889z M433.2,554.2c-4.9,0-9-3.3-10.2-7.9c0,0,0,0,0,0c-0.3-1-0.5-2.1-0.5-3.2V250.4c0-5.8,4.7-10.5,10.5-10.5
	c2.9,0,5.5,1.2,7.4,3.1c1.9,1.9,3.1,4.5,3.1,7.4v282.8h173.9c5.8,0,10.5,4.7,10.5,10.5c0,5.8-4.7,10.5-10.5,10.5H433.2z"/>
<path class="st0" d="M341.5,104.1c-143.1,33.9-210,104.3-276.2,186C39.7,321.7-36.2,146.4,106.9,56.3
	C256.9-38.1,379.5,95.1,341.5,104.1L341.5,104.1z"/>
<path class="st0" d="M549.9,104.1C693,138,760,208.3,826.1,290.1c25.6,31.6,101.5-143.7-41.6-233.8
	C634.5-38.1,511.9,95.1,549.9,104.1L549.9,104.1z"/>
</svg>
