<?xml version="1.0" encoding="utf-8"?>
<!-- Generator: Adobe Illustrator 21.0.1, SVG Export Plug-In . SVG Version: 6.00 Build 0)  -->
<svg version="1.1" id="Layer_1" xmlns="http://www.w3.org/2000/svg" xmlns:xlink="http://www.w3.org/1999/xlink" x="0px" y="0px"
	 viewBox="0 0 120 120" style="enable-background:new 0 0 120 120;" xml:space="preserve">
<style type="text/css">
	.st0{fill:#FFFFFF;}
</style>
<path class="st0" d="M91.8,51.7c0-5.9,0-11.9-0.1-17.8c0-1.1-0.1-2.2-0.2-3.2c-0.3-2.4-0.8-4.7-1.6-6.9c-1.5-4.3-4-8.3-7.2-11.6
	c-3.3-3.4-7.4-6-11.8-7.6c-2.2-0.8-4.5-1.4-6.9-1.7c-1.2-0.2-2.4-0.2-3.6-0.3c-0.4,0-0.4,0-0.8,0c-1.2,0-2.4,0.1-3.6,0.3
	c-2.4,0.3-4.7,0.9-6.9,1.7c-4.4,1.6-8.5,4.3-11.8,7.6c-3.2,3.3-5.7,7.3-7.2,11.6c-0.8,2.2-1.3,4.6-1.6,6.9c-0.1,1.1-0.2,2.2-0.2,3.2
	c0,6-0.1,11.9-0.1,17.8c-9,0.1-16.3,7.4-16.3,16.4V101c0,9.1,7.4,16.4,16.4,16.4h63.5c9.1,0,16.4-7.4,16.4-16.4c0,0,0-32.8,0-32.9
	C108.2,59.1,100.9,51.8,91.8,51.7z M63,84.1l1.1,8.4l1.3,9.6H54.6l1.4-9.6l1.2-8.4c-3.7-1.2-6.3-4.7-6.3-8.7c0-5.1,4.1-9.2,9.2-9.2
	s9.2,4.1,9.2,9.2C69.2,79.4,66.6,82.9,63,84.1z M40.9,51.7c0-5.9,0.1-11.8,0.1-17.7c0-2.1,0.4-4.3,1.2-6.3c0.9-2.6,2.5-5,4.4-6.9
	c1.9-2,4.3-3.5,6.9-4.4c2-0.7,4.1-1.1,6.3-1.1c0.3,0,0.5,0,0.7,0c2.1,0.1,4.1,0.4,6,1.1c2.5,0.9,4.8,2.4,6.7,4.3
	c2,1.9,3.5,4.3,4.5,6.8c0.8,2,1.1,4.1,1.2,6.2c0.1,6,0.2,11.9,0.2,17.9H40.9z"/>
</svg>
