<?xml version="1.0" encoding="utf-8"?>
<!-- Generator: Adobe Illustrator 19.2.1, SVG Export Plug-In . SVG Version: 6.00 Build 0)  -->
<svg version="1.1" id="Layer_1" xmlns="http://www.w3.org/2000/svg" xmlns:xlink="http://www.w3.org/1999/xlink" x="0px" y="0px"
	 viewBox="0 0 1280 1024" style="enable-background:new 0 0 1280 1024;" xml:space="preserve">
<style type="text/css">
	.st0{fill:#FFFFFF;}
</style>
<g id="Layer18">
	<path class="st0" d="M640,169.3c-230.2,0-416.9,186.7-416.9,416.9s186.7,416.9,416.9,416.9s416.9-186.7,416.9-416.9
		S870.2,169.3,640,169.3z M640,921.5c-185.2,0-335.3-150.1-335.3-335.3S454.8,250.9,640,250.9S975.3,401,975.3,586.2
		S825.2,921.5,640,921.5z"/>
	<path class="st0" d="M596.6,205.4l-60-112l46.7-72.6h109.8L743.3,93l-52.1,112.8"/>
	<path class="st0" d="M784.7,215.1l-2.9-90.2l52.6-31.5l69.9,34.6l9.3,61.8l-68.8,55.4"/>
	<path class="st0" d="M503.2,215.1l2.9-90.2l-52.6-31.5L383.5,128l-9.3,61.8l68.8,55.4"/>
</g>
</svg>
