<svg xmlns="http://www.w3.org/2000/svg" viewBox="0 0 978.05 792"><title>twitter</title><g style="isolation:isolate"><path d="M959.78,104a386.13,386.13,0,0,1-110.94,30.42A193.72,193.72,0,0,0,933.77,27.55,386.74,386.74,0,0,1,811.11,74.43a192.91,192.91,0,0,0-141-61c-106.68,0-193.17,86.49-193.17,193.16a193.91,193.91,0,0,0,5,44c-160.54-8.05-302.87-85-398.14-201.82a193.38,193.38,0,0,0,59.78,257.89A192.38,192.38,0,0,1,56.1,282.51c0,0.81,0,1.61,0,2.43,0,93.59,66.58,171.66,155,189.41a193.65,193.65,0,0,1-87.23,3.31A193.36,193.36,0,0,0,304.24,611.8a387.58,387.58,0,0,1-239.9,82.69,393.2,393.2,0,0,1-46.08-2.7,546.74,546.74,0,0,0,296.1,86.78C669.67,778.58,864,484.24,864,229q0-12.56-.56-25A392.58,392.58,0,0,0,959.78,104Z" fill="#1DA1F2" style="mix-blend-mode:multiply"/></g></svg>